<svg xmlns="http://www.w3.org/2000/svg" viewBox="0 0 214.32 161.74"><defs><style>.cls-1{fill:#939598;}</style></defs><title>cart_icon_lightgray</title><g id="Layer_2" data-name="Layer 2"><g id="Layer_1-2" data-name="Layer 1"><path class="cls-1" d="M201.55,88.78l12.62-71.23a10,10,0,0,0-9.85-11.74H53.69A10,10,0,0,0,44.61,0H10a10,10,0,0,0,0,20H35.23L48.38,88.81l6.08,34.41a9.78,9.78,0,0,0,1.44,3.66,19.44,19.44,0,1,0,30.42,4.6h79.93A19.46,19.46,0,1,0,194.4,127a10,10,0,0,0-8.34-15.51H72.69L70.14,97H191.7A10,10,0,0,0,201.55,88.78Z"/></g></g></svg>