<svg xmlns="http://www.w3.org/2000/svg" viewBox="0 0 208.08 195.54"><defs><style>.cls-1,.cls-6{fill:#fff;stroke:#231f20;stroke-miterlimit:10;stroke-width:2px;}.cls-1{stroke-linecap:round;}.cls-2{fill:#c6202c;}.cls-3{fill:#231f20;}.cls-4{fill:#4eb748;}.cls-5{fill:#4661ad;}</style></defs><title>logo_mini</title><g id="Layer_2" data-name="Layer 2"><g id="Layer_1-2" data-name="Layer 1"><circle class="cls-1" cx="71.86" cy="144.42" r="49.65"/><path class="cls-1" d="M88.25,97.93l-21.73,3.32-14.8,11.09L55,121.9l-12.66,1.6-7.06,24.86,2.95,18.1-7.62,5.6C6.8,141,34.54,80.33,88.25,97.93Z"/><path class="cls-1" d="M55,191.13,71.86,179.2l1.3-13.95,24.75-14.81,5.7-33.22,9-1.09C142,163.25,92.08,207.32,55,191.13Z"/><path class="cls-2" d="M175.67,47.71c10.5,3.19,22.37,3.5,31.22.79-5.93,4.63-12,9.25-19.57,12.86a65.9,65.9,0,0,1-27.3,6.4,91.8,91.8,0,0,1-15.39-1.19C134.13,65,123.52,61.88,115.11,57a6.68,6.68,0,0,1-2-1.48,2.67,2.67,0,0,1-.47-1.5c-.27-4.85,3.61-8.88,7.71-12.5,3.31-2.92,7-5.82,12.39-7.29s12.94-1.18,18.32,1.69C157.54,40.81,166.15,44.5,175.67,47.71Z"/><path class="cls-3" d="M176,46.59c9.82,2.92,20.69,3.71,30.61.79,1-.31,2,1.22,1.11,1.95-9.52,7.43-19.42,14.09-31.21,17.27-13.36,3.61-27.28,2.5-40.66-.54a87.21,87.21,0,0,1-15.74-5.21c-2.39-1.05-5.19-2.17-7.15-3.9-1.79-1.58-1.64-4-1-6.18,1.53-5.37,6.74-9.6,11-12.82a27.56,27.56,0,0,1,14.59-5.65,28.85,28.85,0,0,1,9.87.94c3,.86,5.27,2.53,7.91,4.18,6.41,4,13.54,6.75,20.68,9.17,1.4.48.8,2.72-.61,2.24a124.25,124.25,0,0,1-15.89-6.43c-4.64-2.32-8.68-6-13.78-7.2-11.25-2.6-21.57,2.88-28.74,11.36-1.51,1.78-4.66,6.23-2.6,8.58a12,12,0,0,0,3.43,2q2.1,1.09,4.27,2A88.48,88.48,0,0,0,139,64.38c11.43,2.38,23.3,3.21,34.75.53C186,62,196.26,55.34,206.08,47.67l1.11,1.95c-10.29,3-21.63,2.23-31.82-.79A1.16,1.16,0,0,1,176,46.59Z"/><path class="cls-4" d="M173.91,54.56c9,2.74,20.3,3.3,27.91,1a99,99,0,0,1-17.9,10.76,56.58,56.58,0,0,1-23.46,5.5,79.68,79.68,0,0,1-13.23-1c-9-1.39-18.14-4-25.36-8.21a5.73,5.73,0,0,1-1.69-1.28,2.19,2.19,0,0,1-.4-1.28c-.23-4.17,3.1-7.63,6.62-10.74,2.85-2.51,6-5,10.65-6.27s11.12-1,15.75,1.46A129.46,129.46,0,0,0,173.91,54.56Z"/><path class="cls-3" d="M174.22,53.44c8.64,2.56,18.54,3.53,27.3,1,1-.3,2.06,1.22,1.11,2-8.17,6.3-17.75,11.78-27.75,14.53-10.55,2.9-21.53,2.37-32.18.25a78.4,78.4,0,0,1-16.06-4.9,28.94,28.94,0,0,1-6.6-3.49c-1.64-1.34-1.64-3.41-1.16-5.33,1.16-4.64,5.57-8.25,9.18-11.05a23.86,23.86,0,0,1,11.67-5.07,24.53,24.53,0,0,1,15.87,3.45,132.94,132.94,0,0,0,18.62,8.69c1.38.53.78,2.77-.62,2.23-4.45-1.69-8.84-3.56-13.11-5.68s-8.42-5.29-13.23-6.2c-9.36-1.77-17.86,2.9-23.75,10-1.86,2.23-3.82,5.56-1.05,7.82,1.87,1.52,4.76,2.46,7,3.34a79.64,79.64,0,0,0,13.87,4c9.74,1.95,19.8,2.52,29.52.13,10.14-2.5,19.94-8,28.18-14.32l1.11,1.94c-9.14,2.67-19.49,1.7-28.52-1A1.16,1.16,0,0,1,174.22,53.44Z"/><path class="cls-5" d="M146.26,52c-4.62-2.47-11.11-2.72-15.75-1.46s-7.79,3.76-10.64,6.27c-3.52,3.11-6.85,6.57-6.62,10.74a2.24,2.24,0,0,0,.4,1.29,5.66,5.66,0,0,0,1.68,1.27c7.23,4.17,16.35,6.82,25.37,8.21a78.54,78.54,0,0,0,13.23,1,56.58,56.58,0,0,0,23.46-5.5,97.78,97.78,0,0,0,17.83-10.77c-7.62,2.32-18.82,1.78-27.84-1C159.14,58.58,151.93,55.09,146.26,52Z"/><path class="cls-3" d="M145.67,53c-6.9-3.47-15.48-2.42-21.69,2-3,2.13-6.34,4.9-8.28,8.08-.56.92-1.47,2.58-1.3,3.72a3.61,3.61,0,0,0,2.21,2.73,51.67,51.67,0,0,0,5.92,2.81c14.84,6,32.67,8.14,48.05,3A82.88,82.88,0,0,0,194.4,62.22l1.12,2c-8,2.33-16.85,1.82-24.88,0-4.51-1-8.67-3.12-12.84-5.07s-8.16-3.93-12.13-6.11c-1.31-.71-.12-2.7,1.19-2q5.25,2.87,10.66,5.42c4.2,2,8.47,4.24,13,5.35,7.83,1.9,16.58,2.46,24.39.18,1.05-.31,2.06,1.21,1.12,1.94A87.19,87.19,0,0,1,172.2,77.21a61.72,61.72,0,0,1-27.94,2.73C134.7,78.82,125,76.53,116.47,72c-1.48-.78-3.5-1.59-4.14-3.29a7.61,7.61,0,0,1,.52-5.24c1.66-3.95,5.38-7,8.68-9.61,7.17-5.57,17.07-7.07,25.33-2.92C148.19,51.65,147,53.64,145.67,53Z"/><path class="cls-2" d="M30.16,12.82C19.27,11.58,8.25,7.14,1.2,1.14,4.8,7.75,8.53,14.39,14.05,20.72A65.8,65.8,0,0,0,36.56,37.43a90.67,90.67,0,0,0,14.6,5c10.27,2.69,21.23,4.08,30.88,3a6.46,6.46,0,0,0,2.39-.59,2.52,2.52,0,0,0,1-1.19c2.18-4.34.22-9.58-2.11-14.53-1.87-4-4.1-8.11-8.46-11.61s-11.41-6.23-17.49-5.73C49.55,13.69,40.17,13.66,30.16,12.82Z"/><path class="cls-3" d="M30.33,11.67C20.16,10.44,9.86,6.85,1.92.23,1.08-.47-.45.53.13,1.58c5.78,10.6,12.22,20.65,21.78,28.25C32.74,38.45,46,43,59.43,45.49A87.2,87.2,0,0,0,76,47c2.61,0,5.62.07,8.11-.74,2.27-.74,3.11-3,3.4-5.26.73-5.54-2.37-11.49-5-16.14a27.51,27.51,0,0,0-11.14-11,28.6,28.6,0,0,0-9.43-3.06c-3.13-.42-5.85.22-8.92.69-7.48,1.13-15.11.81-22.62.2-1.48-.12-1.82,2.17-.33,2.29a124,124,0,0,0,17.13.42c5.18-.29,10.36-2.07,15.51-1.13C74,15.33,81.28,24.46,84.5,35.09c.68,2.24,1.8,7.58-1,8.91a12.52,12.52,0,0,1-4,.5c-1.57.11-3.14.16-4.72.16a88.93,88.93,0,0,1-17.59-2c-11.44-2.35-22.65-6.31-32.1-13.32C15,21.85,8.24,11.64,2.27.7L.48,2.05C8.72,8.92,19.44,12.69,30,14A1.16,1.16,0,0,0,30.33,11.67Z"/><path class="cls-4" d="M29.06,19.8c-9.37-1.06-19.94-5-26-10.19a98.83,98.83,0,0,0,12.15,17A56.71,56.71,0,0,0,34.56,41,79.52,79.52,0,0,0,47.1,45.28c8.83,2.3,18.25,3.5,26.54,2.55a5.61,5.61,0,0,0,2-.51,2.19,2.19,0,0,0,.88-1c1.87-3.73.19-8.23-1.81-12.49-1.61-3.43-3.52-7-7.28-10s-9.8-5.36-15-4.93A127.87,127.87,0,0,1,29.06,19.8Z"/><path class="cls-3" d="M29.22,18.65C20.28,17.57,10.8,14.53,3.78,8.7,2.94,8,1.41,9,2,10.05c5,9,11.6,17.86,19.69,24.35,8.54,6.86,18.82,10.73,29.43,13A78.68,78.68,0,0,0,67.79,49.3a28.18,28.18,0,0,0,7.45-.58c2-.57,2.86-2.47,3.18-4.43.78-4.72-1.83-9.78-4-13.79a23.92,23.92,0,0,0-8.7-9.29,24.53,24.53,0,0,0-15.93-3.13,131.68,131.68,0,0,1-20.54.57c-1.47-.06-1.82,2.23-.32,2.3,4.76.21,9.53.24,14.29,0S53,19.43,57.8,20.51c9.28,2.1,15.23,9.76,17.83,18.58.82,2.79,1.3,6.62-2.14,7.59-2.32.65-5.35.37-7.74.3a80.21,80.21,0,0,1-14.31-1.85C41.73,43,32.27,39.57,24.31,33.51,16,27.19,9.17,18.27,4.13,9.17L2.34,10.52C9.67,16.6,19.55,19.82,28.9,21A1.16,1.16,0,0,0,29.22,18.65Z"/><path class="cls-5" d="M55.46,28.42c5.22-.43,11.27,1.92,15,4.92s5.66,6.55,7.27,10c2,4.26,3.68,8.75,1.82,12.49a2.27,2.27,0,0,1-.89,1,5.56,5.56,0,0,1-2,.5c-8.29,1-17.71-.24-26.54-2.54a78.54,78.54,0,0,1-12.54-4.33A56.57,56.57,0,0,1,18.21,36.1a98,98,0,0,1-12.07-17c6.06,5.15,16.55,9.12,25.92,10.18C41,29.36,49,29,55.46,28.42Z"/><path class="cls-3" d="M55.6,29.57C63.32,29.12,70.78,33.5,74.73,40c1.92,3.16,3.87,7,4.38,10.7.15,1.07.33,3-.29,3.94a3.62,3.62,0,0,1-3.11,1.63,51,51,0,0,1-6.54.22c-16-.37-33.22-5.51-45.3-16.3A82.59,82.59,0,0,1,7.21,18.69L5.42,20c6.39,5.31,14.73,8.36,22.83,9.87,4.55.84,9.19.57,13.8.44S51.1,30,55.6,29.57c1.49-.14,1.19-2.44-.29-2.3-4,.37-8,.6-11.94.74-4.64.15-9.46.52-14.06-.26-7.94-1.37-16.19-4.33-22.45-9.53-.84-.7-2.38.3-1.8,1.35a87.62,87.62,0,0,0,16.56,21.7A61.87,61.87,0,0,0,46.19,54.88c9.21,2.77,19,4.5,28.63,3.79,1.68-.13,3.85-.07,5.11-1.38a7.55,7.55,0,0,0,1.6-5C81.59,48,79.4,43.68,77.39,40c-4.37-8-12.86-13.27-22.08-12.74C53.82,27.36,54.12,29.66,55.6,29.57Z"/><path class="cls-6" d="M146.07,50.23l-1.72-.57.43-1.93C141,44.64,136.1,43,129.7,42.35l-1.1,5A282.29,282.29,0,0,0,96.24,39a284.46,284.46,0,0,0-32.91-6l1.11-5c-6.09-2.07-11.23-2.67-15.94-1.45l-.42,1.93-1.8-.21C33,43.4,23.23,61.74,17.7,84.86c-4.07,18.5,12.16,26.74,25.15,12.9l12-17.45,1.06.19c3.4,5.82,9.81,8.14,18.36,4l11.4,2.51,11.4,2.51c6,7.31,12.83,7.9,18.35,4l1,.26L120,114.75c6,18,24.18,17.35,28.25-1.15C152.93,90.29,151.76,69.55,146.07,50.23Z"/><path class="cls-3" d="M88.69,46.5,80.3,44.6l-2.39-.55-8.39-1.9-1.18-.27a1.25,1.25,0,0,0-1.49.94L66.58,44,61.9,64.65a.94.94,0,0,0,.7,1.12l.57.13a.93.93,0,0,0,1.12-.71L69,44.54l8.39,1.9L72.68,67.09a.93.93,0,0,0,.71,1.12l.56.13a.93.93,0,0,0,1.12-.7L79.76,47l8.39,1.9L83.46,69.54a.94.94,0,0,0,.71,1.12l.56.13a.93.93,0,0,0,1.12-.71l4.69-20.65.21-.91a1.51,1.51,0,0,0-1.14-1.81Z"/><path class="cls-3" d="M119.41,53.26,111,51.36l-2.39-.54-8.39-1.91-1.18-.26a1.23,1.23,0,0,0-1.49.93l-.26,1.18L92.62,71.41a.93.93,0,0,0,.71,1.12l.56.13A.93.93,0,0,0,95,72L99.7,51.31l8.39,1.9L103.4,73.86a.94.94,0,0,0,.71,1.12l.56.13a.93.93,0,0,0,1.12-.71l4.69-20.65,8.39,1.91L114.18,76.3a.93.93,0,0,0,.71,1.12l.57.13a.92.92,0,0,0,1.11-.7l4.69-20.65.21-.92a1.52,1.52,0,0,0-1.14-1.81Z"/></g></g></svg>